# xmcd CD database file
#
# Track frame offsets:
#	182
#	15742
#	32042
#
# Disc length: 605 seconds
#
# Revision: 5
# Processed by: cddbd v1.5.1PL0 Copyright (c) Steve Scherf et al.
# Submitted via: CDex 1.51
#
DISCID=1a025b03
DTITLE=bill wyman's - rhythm kings
DYEAR=1900
DGENRE=Country
TTITLE0=Anyway the wind blows
TTITLE1=Spooky
TTITLE2=Too late
EXTD=
EXTT0=
EXTT1=
EXTT2=
PLAYORDER=
